<svg id="Layer_1" data-name="Layer 1" xmlns="http://www.w3.org/2000/svg" viewBox="0 0 50 50"><path d="M31.82,11.79H18.18a6.34,6.34,0,0,0-6.31,6.34V31.87a6.34,6.34,0,0,0,6.31,6.34H31.82a6.34,6.34,0,0,0,6.31-6.34V18.13A6.34,6.34,0,0,0,31.82,11.79ZM25,33.44A8.44,8.44,0,1,1,33.38,25,8.42,8.42,0,0,1,25,33.44Zm8.58-15.22a2,2,0,1,1,2-2A2,2,0,0,1,33.58,18.22Z"/><path d="M25,19.48A5.52,5.52,0,1,0,30.49,25,5.52,5.52,0,0,0,25,19.48Z"/><path d="M25,.62A24.38,24.38,0,1,0,49.23,25,24.3,24.3,0,0,0,25,.62ZM41,31.87a9.23,9.23,0,0,1-9.2,9.25H18.18A9.23,9.23,0,0,1,9,31.87V18.13a9.23,9.23,0,0,1,9.2-9.25H31.82A9.23,9.23,0,0,1,41,18.13Z"/></svg>