<svg id="Layer_1" data-name="Layer 1" xmlns="http://www.w3.org/2000/svg" viewBox="0 0 50 50"><path d="M25,.56a24.47,24.47,0,0,0-9.75,46.83,21.69,21.69,0,0,1,.42-5.61c.47-2,3.13-13.32,3.13-13.32A9.4,9.4,0,0,1,18,24.59c0-3.62,2.09-6.33,4.69-6.33,2.21,0,3.27,1.67,3.27,3.67,0,2.23-1.41,5.58-2.14,8.68a3.77,3.77,0,0,0,3.83,4.7c4.6,0,7.7-6,7.7-13C35.37,17,31.79,13,25.27,13a11.54,11.54,0,0,0-12,11.71,7.05,7.05,0,0,0,1.6,4.79,1.19,1.19,0,0,1,.35,1.36c-.12.45-.38,1.53-.49,2a.84.84,0,0,1-1.22.62c-3.39-1.4-5-5.14-5-9.34,0-6.95,5.81-15.27,17.35-15.27,9.28,0,15.38,6.75,15.38,14,0,9.59-5.3,16.75-13.11,16.75-2.62,0-5.08-1.42-5.93-3,0,0-1.41,5.63-1.71,6.72a20.46,20.46,0,0,1-2.44,5.23,24,24,0,0,0,6.88,1A24.44,24.44,0,0,0,25,.56"/></svg>