<?xml version="1.0" encoding="utf-8"?>
<!-- Generator: Adobe Illustrator 24.1.0, SVG Export Plug-In . SVG Version: 6.00 Build 0)  -->
<svg version="1.1" id="Layer_1" xmlns="http://www.w3.org/2000/svg" xmlns:xlink="http://www.w3.org/1999/xlink" x="0px" y="0px"
	 viewBox="0 0 1315 400" style="enable-background:new 0 0 1315 400;" xml:space="preserve">
<polygon points="10.5,63.6 10.5,112.2 69.9,112.2 69.9,268.9 131.1,268.9 131.1,112.2 190.9,112.2 190.9,63.6 "/>
<polygon points="270.8,189.5 367.7,189.5 367.7,142.7 270.8,142.7 270.8,110.5 377.7,110.5 377.7,63.6 209.9,63.6 209.9,268.9 
	380.6,268.9 380.6,222 270.8,222 "/>
<polygon points="549,178.4 462,63.6 409.9,63.6 409.9,268.9 465.8,268.9 465.8,154.7 552.8,268.9 604.7,268.9 604.7,63.6 549,63.6 
	"/>
<polygon points="812,102.3 812,63.6 632.5,63.6 632.5,111.1 730.9,111.1 629,230.5 629,268.9 814,268.9 814,221.5 710.1,221.5 "/>
<rect x="838.1" y="63.6" width="60.9" height="205.3"/>
<g>
	<path d="M1029,165.8c-27.2,0-49.3-22.1-49.3-49.3c0-27.2,22.1-49.3,49.3-49.3c27.2,0,49.3,22.1,49.3,49.3
		C1078.3,143.7,1056.2,165.8,1029,165.8 M1248.9,178.4l-87-114.8h-36.7c-18.7-34-54.8-57-96.3-57c-60.7,0-109.8,49.2-109.8,109.8
		c0,60.6,49.2,109.8,109.8,109.8c32,0,60.8-13.7,80.9-35.5v78.2h55.9V154.7l87,114.2h51.8V63.6h-55.6V178.4z"/>
	<path d="M988.6,244.8L988.6,244.8z M977.4,242.5L977.4,242.5z M1003.6,243.3c-0.2-0.2-0.5-0.3-0.8-0.5c-0.5-0.2-1.1-0.3-1.8-0.3
		c-0.3,0-0.8-0.1-0.9-0.1l-0.6-0.3c-1.6-0.7-2.2-0.6-3.6,0.3l-0.7,0.4c-0.4,0.3-0.6,0.4-1,0.5c-1.7,0.4-3.6,0.4-5.5,0.4h-0.2
		c-0.7,0-1.4,0-2.1,0c-3.8,0.1-6.5-1.2-8.5-2.1l-0.2-0.1c-0.5-0.3-1-0.5-1.4-0.7c-0.6-0.3-2-0.8-3.5-1.2l-0.4-1.2l-2.5,0.1l-0.6-0.7
		l-3.1-0.7c-1.9-1.4-3.2-2.1-3.5-2.2c-0.5-0.3-1.1-1.1-1.5-1.9c-0.3-0.5-0.6-1-0.9-1.3c-1.2-1.5-2.9-2.4-3.9-2.7
		c0,0-0.5-0.2-1.7-1.1l0.8-1.7l-1.9-0.6l0.2-0.3l-0.5-0.9c-0.7-1.3-1.1-1.9-1.2-2.1l0-0.1c0-0.1-0.1-0.2-0.2-0.4l-0.1-0.3h0
		c-0.2-0.2-0.4-0.4-0.6-0.6c-0.1-0.5-0.2-0.8-0.2-0.8c-0.4-1.4-1.3-2.3-2.7-2.9c-0.7-0.9-1.7-1.6-2.7-1.8c-0.9-0.2-1.8,0-2.6,0.6
		c-0.9,0.8-2.3,2.9-1.2,5.7l0.1,0.2l1.3,1.2l0.1,0.5l2.1,3.7l1,0.3l0,0.8l3.8,4.5l2.1,1.4l0.2,0.8l2.1,1.7l1.6,0.4l0.6,1.3l0.4,0.3
		c6.4,4.6,13.9,8.4,14.1,8.4c0.7,0.4,1.4,0.9,2.3,1.2c5.9,2.8,12,3.1,14.1,3.2c0.2,0,0.4,0,0.4,0l0.2,0c0.1,0,0.1,0,0.2,0
		c1.1,0,2.6-0.2,3.4-0.3l0.5-0.1c0.7-0.1,3-0.5,4.2-0.8c0.4-0.1,1-0.1,1.8-0.1c1.6,0.1,4,0.2,5.4-1.8
		C1004.8,247.5,1005.3,244.7,1003.6,243.3L1003.6,243.3z"/>
	<path d="M988.6,261.1c-1.5-0.6-2.6-0.4-3.6-0.3l-0.1-0.4l-0.8,0l-0.7-0.2c-1.3-0.3-2.6-0.1-3.8,0.1c-1,0.1-1.9,0.3-2.7,0.1
		l-1.6-0.4c-2.4-0.6-4.7-1.2-7.3-1.4c-1.2-0.1-1.9-0.5-3.1-1.1l-0.5-0.3c-0.9-0.5-1.8-1-2.7-1.6l-1.5-0.9c-0.7-0.4-1.5-0.7-2.2-0.9
		c-0.7-0.3-1.4-0.5-1.9-0.9c-0.4-0.3-0.7-0.8-1.1-1.3c-0.3-0.4-0.6-0.9-1.1-1.4c-1.3-1.4-3-2.2-4.1-2.5c-0.6-0.1-1-0.6-1.8-1.5
		c-0.7-0.8-1.4-1.6-2.5-2.2c-0.2-0.1-0.5-0.2-0.7-0.3c0-0.4-0.1-1-0.5-1.6c-1.3-1.8-4.1-3.1-6-2.2c-1.1,0.5-2.1,1.9-1.5,4.2
		c0.7,2.6,2.6,3.9,4.3,5c0.6,0.4,1.1,0.8,1.6,1.2c0.6,0.5,1.2,1.2,1.8,2c0.7,1,1.5,2,2.6,2.8c1.2,0.9,2.1,0.9,2.8,0.8
		c0.2,0.4,0.5,1.1,1.3,1.6c3,1.8,6.3,3.6,10.3,5.5c0.5,0.2,1,0.5,1.5,0.7l0.3,0.1c1.8,0.9,3.9,2,5.9,2.3c0.7,0.1,1.4,0.2,2.2,0.1
		c0.5,0,1,0,1.4,0.1c0.3,0,0.5,0.1,0.7,0.1l0.3,0.1c0.7,0.2,1.6,0.3,2.6,0.3c1.1,0,1.7,0,2.4,0.3c1.2,0.4,2.6,0.7,4,0.7
		c0.1,0,0.3,0,0.4,0c1.4,0,3.3-0.3,4.7-1.3c1.3-1,2-2.5,1.9-4.2l0-1.1L988.6,261.1z"/>
	<path d="M23.8,380.4h18.8c13.6,0,24.5-11,24.5-24.5c0-13.6-11-24.5-24.5-24.5H23.8V380.4z M42.5,328.1c15.4,0,27.8,12.4,27.8,27.8
		c0,15.4-12.4,27.8-27.8,27.8h0H20.4v-55.6H42.5z"/>
</g>
<polygon points="113.1,328.1 113.1,383.7 150,383.7 150,380.6 116.4,380.6 116.4,357 145.4,357 145.4,353.7 116.4,353.7 
	116.4,331.5 149,331.5 149,328.1 "/>
<g>
	<path d="M223.3,332.5l-1.5,3c-4.4-2.6-9.5-4-14.6-4c-8.8,0-14.5,3.7-14.5,9.5c0,16.9,32.7,8.2,32.5,28.7c0,8.6-7.7,14.2-19.3,14.2
		c-7.4-0.1-14.5-3-19.9-8.1l1.8-2.9c4.8,4.7,11.3,7.4,18.1,7.5c9.5,0,15.7-4.1,15.7-10.7c0.1-17.4-32.5-8.5-32.5-28.6
		c0-8,7.3-13.2,18.3-13.2C212.9,327.9,218.5,329.5,223.3,332.5"/>
</g>
<rect x="267.5" y="328.1" width="3.3" height="55.6"/>
<g>
	<path d="M361.3,356.3v20.1c-5.6,4.7-12.6,7.3-19.9,7.2c-15.4,0.4-28.2-11.7-28.6-27.1c-0.4-15.4,11.7-28.2,27.1-28.6
		c0.6,0,1.1,0,1.7,0c7.2,0,14.1,2.6,19.6,7.3l-2,2.5c-4.9-4.3-11.1-6.6-17.6-6.6c-13.6-0.4-25.1,10.3-25.5,23.9
		c-0.4,13.6,10.3,25.1,23.9,25.5c0.5,0,1,0,1.6,0c6,0,11.8-2,16.6-5.7v-18.4H361.3z"/>
</g>
<polygon points="447.7,328.1 447.7,378.7 410.6,328.1 406.7,328.1 406.7,383.7 410,383.7 410,333.2 447.1,383.7 451,383.7 
	451,328.1 "/>
<g>
	<path d="M558.3,351.7c6.7-3.5,13-6.8,13-13.1c0-4.8-3.4-8-8.9-8c-6,0-9.9,3.9-9.9,8.7C552.6,342.9,554.6,346.9,558.3,351.7
		L558.3,351.7z M573.8,372.2c-6.7-6.7-12.3-12.3-16.3-17.1c-6.3,3.4-12,7.2-12,13.8c0,6.7,5.5,12.1,12.3,12.1c0.2,0,0.4,0,0.5,0
		C563.9,380.9,569.1,377.7,573.8,372.2L573.8,372.2z M587.7,382.1l-1.8,2c-3.6-3.6-6.9-6.9-9.9-9.9c-5.3,6.1-11.3,9.6-17.7,9.6
		c-8.3,0.4-15.3-6.1-15.7-14.4c0-0.2,0-0.4,0-0.5c0-8.3,6.5-12.4,13.3-16.1c-4-5.2-6.1-9.5-6.1-13.6c0-6.4,5.2-11.3,12.7-11.3
		c7.1,0,11.8,4.3,11.8,10.5c0,7.5-7.1,11.4-14.2,15.1c3.8,4.6,9.1,9.9,15.5,16.3c2.6-3.6,4.7-7.5,6.4-11.6l2.5,1.8
		c-1.8,4.2-4.1,8.2-6.8,11.9L587.7,382.1z"/>
	<path d="M681.8,380.4h19.3c10.7,0,16.9-4.4,16.9-12.1c0-7.7-6.1-11.8-16.9-11.8h-19.3V380.4z M681.8,353.3h19.3
		c8.9,0,14.1-4,14.1-11.1c0-7.1-5.2-10.9-14.1-10.9h-19.3V353.3z M701.2,328.1c10.9,0,17.4,5.1,17.4,13.7c0.3,6.4-4.3,12-10.7,12.8
		c8.5,1,13.5,6.3,13.5,14.1c0,9.5-7.3,14.9-19.9,14.9h-22.9v-55.6H701.2z"/>
	<path d="M784.4,361.9c11.6,0,18.2-5.5,18.2-15.4c0-9.9-6.7-15-18.3-15h-16.4V362L784.4,361.9z M789,364.9c-1.5,0.2-3.1,0.3-4.7,0.3
		H768v18.5h-3.4v-55.6h19.7c13.7,0,21.6,6.7,21.6,18.3c0,9.5-4.9,15.7-13.7,17.9l13.9,19.4h-4L789,364.9z"/>
</g>
<path d="M870,331.9l14.9,32.6h-29.6L870,331.9z M868.3,328.1l-25.2,55.6h3.7l7.2-15.8h32.5l7.2,15.8h3.7l-25.5-55.6H868.3z"/>
<polygon points="976.9,328.1 976.9,378.7 939.8,328.1 935.9,328.1 935.9,383.7 939.2,383.7 939.2,333.2 976.3,383.7 980.2,383.7 
	980.2,328.1 "/>
<g>
	<path d="M1030.3,380.4h18.8c13.6,0,24.5-11,24.5-24.5c0-13.6-11-24.5-24.5-24.5h-18.7L1030.3,380.4z M1049.1,328.1
		c15.4,0,27.8,12.4,27.8,27.8c0,15.4-12.4,27.8-27.8,27.8h0h-22v-55.6H1049.1z"/>
</g>
<rect x="1119.8" y="328.1" width="3.4" height="55.6"/>
<polygon points="1210.9,328.1 1210.9,378.7 1173.7,328.1 1169.8,328.1 1169.8,383.7 1173.1,383.7 1173.1,333.2 1210.2,383.7 
	1214.1,383.7 1214.1,328.1 "/>
<g>
	<path d="M1304.5,356.3v20.1c-5.5,4.7-12.5,7.2-19.7,7.3c-15.4,0.4-28.2-11.7-28.6-27.1c-0.4-15.4,11.7-28.2,27.1-28.6
		c0.6,0,1.1,0,1.7,0c7.2,0,14.1,2.6,19.6,7.3l-2,2.5c-4.9-4.3-11.1-6.6-17.6-6.6c-13.6-0.4-25.1,10.3-25.5,23.9
		c-0.4,13.6,10.3,25,23.9,25.5c0.5,0,1.1,0,1.6,0c6,0,11.8-2,16.5-5.7v-18.5H1304.5z"/>
</g>
</svg>
