<svg id="Layer_1" data-name="Layer 1" xmlns="http://www.w3.org/2000/svg" viewBox="0 0 50 50"><path d="M48.47,20.56h-23V30H38.61a11.87,11.87,0,0,1-4.86,7.45h0a14.29,14.29,0,0,1-8.25,2.31,14.65,14.65,0,0,1-13.66-10h0A14.56,14.56,0,0,1,11.07,25a15.1,15.1,0,0,1,.77-4.78h0a14.43,14.43,0,0,1,13.57-10,13.39,13.39,0,0,1,9.4,3.61l6.9-7A24.17,24.17,0,0,0,3.83,14h0a24.63,24.63,0,0,0,0,21.93A24.25,24.25,0,0,0,25.52,49.41a22.77,22.77,0,0,0,16.05-6h0A23.35,23.35,0,0,0,48.36,30,31.35,31.35,0,0,0,48.74,25,34.51,34.51,0,0,0,48.47,20.56Z"/></svg>