<svg id="Layer_1" data-name="Layer 1" xmlns="http://www.w3.org/2000/svg" viewBox="0 0 50 50"><path d="M36.89,19.45c0,.27,0,.54,0,.82,0,8.29-6.27,17.84-17.74,17.84A17.57,17.57,0,0,1,9.61,35.3a14.72,14.72,0,0,0,1.49.08,12.46,12.46,0,0,0,7.74-2.68A6.25,6.25,0,0,1,13,28.34a6.45,6.45,0,0,0,1.17.11,6,6,0,0,0,1.65-.22,6.26,6.26,0,0,1-5-6.15.25.25,0,0,1,0-.08,6.14,6.14,0,0,0,2.82.79,6.32,6.32,0,0,1-1.93-8.38A17.64,17.64,0,0,0,24.58,21a6.15,6.15,0,0,1-.16-1.43,6.23,6.23,0,0,1,10.78-4.3,12.34,12.34,0,0,0,4-1.52,6.25,6.25,0,0,1-2.74,3.47,12.33,12.33,0,0,0,3.58-1,12.78,12.78,0,0,1-3.11,3.24M25,.62A24.38,24.38,0,1,0,49.23,25,24.3,24.3,0,0,0,25,.62"/></svg>